<svg width="40" height="25" viewBox="0 0 40 25" fill="none" xmlns="http://www.w3.org/2000/svg">
<path d="M8.83565 13.3748C8.83565 13.3748 9.3075 11.209 8.66395 9.92186C8.13283 8.85961 5.4462 7.34766 5.4462 7.34766C4.8672 8.79519 5.01985 11.2131 5.26581 11.8819L5.4462 12.4961L5.11014 13.0682C4.42444 14.2357 3.41496 15.1793 2.204 15.7848L1.37961 16.197C1.04052 16.3666 0.903061 16.7789 1.07264 17.118L2.22845 19.5751C2.22845 19.5751 6.57241 20.6611 9.59395 19.7888" stroke="black" stroke-width="1.2871" stroke-miterlimit="10" stroke-linecap="round" stroke-linejoin="round"/>
<path d="M7.14062 8.0757C10.3458 3.50624 30.8413 -6.23749 36.7764 10.0945C37.418 11.8601 37.5375 13.7737 37.1477 15.6115C36.6331 18.0373 35.8669 21.6496 35.5259 23.2572C35.424 23.7376 35 24.0802 34.5089 24.0802H34.5008C33.8149 24.0802 33.631 23.534 33.5018 22.8604C33.1187 20.8625 33.201 17.7866 30.7399 13.5398" stroke="black" stroke-width="1.2871" stroke-miterlimit="10" stroke-linecap="round" stroke-linejoin="round"/>
<path d="M16.4117 9.75195C16.4117 9.75195 18.7174 13.3752 17.0705 16.0103C15.7771 18.0797 14.0776 21.5709 13.4073 22.9747C13.2288 23.3487 12.8509 23.5863 12.4365 23.5863H12.4202C11.682 23.5863 11.1653 22.8654 11.4016 22.1661C11.8892 20.7228 12.411 18.3277 11.8003 15.681" stroke="black" stroke-width="1.2871" stroke-miterlimit="10" stroke-linecap="round" stroke-linejoin="round"/>
<path d="M17.3999 16.3395C17.3999 16.3395 27.611 17.3277 30.9049 15.022" stroke="black" stroke-width="1.2871" stroke-miterlimit="10" stroke-linecap="round" stroke-linejoin="round"/>
<path d="M27.9705 16.3574C27.9705 16.3574 27.9705 18.9316 27.1986 21.7742C27.0033 22.4935 27.2822 23.2261 28.0275 23.2261C28.4038 23.2261 28.7456 23.0074 28.9033 22.6658L30.5447 19.5752" stroke="black" stroke-width="1.2871" stroke-miterlimit="10" stroke-linecap="round" stroke-linejoin="round"/>
<path d="M17.0399 20.591L16.9121 21.9966C16.8241 22.9646 17.833 23.6531 18.7023 23.2184L18.7134 23.2128C19.1053 23.0169 19.3647 22.6288 19.396 22.1917L19.6043 17.001" stroke="black" stroke-width="1.2871" stroke-miterlimit="10" stroke-linecap="round" stroke-linejoin="round"/>
<path d="M36.5195 5.37149C36.5195 5.37149 40.4722 4.38331 38.1665 7.34783" stroke="black" stroke-width="1.2871" stroke-miterlimit="10" stroke-linecap="round" stroke-linejoin="round"/>
</svg>
