<svg width="40" height="50" viewBox="0 0 40 50" fill="none" xmlns="http://www.w3.org/2000/svg">
<path d="M21.6509 33.8072C46.272 33.013 37.5383 1.24252 36.7396 5.2187C35.9409 9.19488 12.9172 32.2185 10.5298 29.041C8.14757 25.8644 4.9701 25.0701 3.38223 27.4523C1.7935 29.8345 1 30.6289 1 30.6289C1 30.6289 5.76534 29.8346 6.5597 31.4232C7.35398 33.0119 9.87261 38.2235 14.5016 38.5708C14.5016 38.5708 16.0826 39.1103 19.267 45.7183C22.9801 53.4241 38.3318 45.7183 33.5656 41.7474C28.8003 37.7764 25.6237 39.3651 23.2432 37.7764C20.8609 36.1877 21.6544 33.8054 21.6544 33.8054L21.6509 33.8072Z" stroke="black" stroke-width="1.73632" stroke-miterlimit="10" stroke-linecap="round" stroke-linejoin="round"/>
<path d="M21.7208 16.774C21.9932 10.6804 18.8888 -4.15736 16.0942 2.83134C12.9176 10.7733 11.3289 13.1538 11.3289 13.1538C7.5541 16.7393 6.15723 19.4288 5.66064 21.1079" stroke="black" stroke-width="1.73632" stroke-miterlimit="10" stroke-linecap="round" stroke-linejoin="round"/>
</svg>
