<svg width="38" height="43" viewBox="0 0 38 43" fill="none" xmlns="http://www.w3.org/2000/svg">
<path d="M31.1219 14.668C30.7991 13.7172 30.1862 12.8916 29.3696 12.3074C28.553 11.7231 27.5738 11.4097 26.5697 11.4111H22.7139V0L21.0934 0.231491C17.4175 0.756582 14.5542 2.61933 12.5838 5.76811C11.1632 8.03785 10.5028 10.5417 10.1963 12.4144C8.08044 14.0423 6.2397 16.2839 4.71846 19.0867C3.43643 21.4484 2.37516 24.2166 1.56401 27.3143C0.193427 32.5484 0.00789689 36.8899 0.00070994 37.0722L0 42.0967H2.83885V37.1603C2.87434 36.43 3.76836 20.4484 12.3356 14.3629L12.8378 14.0061L12.9203 13.3956C13.3475 10.2346 14.8239 5.01365 19.8746 3.40883V14.2504H26.5697C26.9802 14.2492 27.3808 14.3767 27.715 14.615C28.0493 14.8534 28.3004 15.1905 28.433 15.579C29.5649 18.9201 31.5098 23.1011 34.5409 25.0659L33.6294 28.4844C33.312 29.7035 32.5903 30.7788 31.5822 31.5343C30.5742 32.2898 29.3395 32.6807 28.0803 32.6431C25.5367 32.5668 22.8892 32.8986 20.2111 33.6289L19.1648 33.9142V42.0967H22.0041V36.1048C23.9661 35.6412 25.9795 35.4316 27.995 35.481C29.893 35.5333 31.7531 34.943 33.2736 33.8059C34.7942 32.6687 35.8861 31.0514 36.3725 29.2159L37.8886 23.5302L36.7595 23.0463C34.6478 22.1412 32.6457 19.1657 31.1219 14.668Z" fill="black"/>
</svg>
