<svg width="38" height="35" viewBox="0 0 38 35" fill="none" xmlns="http://www.w3.org/2000/svg">
<path d="M29.7821 8.45903L25.1432 1.75811C24.7994 1.2625 24.3424 0.855963 23.8102 0.572182C23.2779 0.288402 22.6856 0.13555 22.0825 0.126295L13.2792 0H13.261C8.71605 0 5.22887 0.76022 2.98294 4.47039C0.891962 7.92394 0 13.8069 0 24.141V25.4039H2.88561L1.02805 34.8761H3.6021L5.45967 25.4039H6.31477C8.37747 25.4224 10.3646 24.6287 11.8471 23.1944C13.1874 21.912 14.1541 20.1576 14.6429 18.121L14.6474 18.1026L16.8136 7.72257H14.2332L12.1825 17.549C11.558 20.1286 9.69049 22.878 6.31477 22.878H2.53065C2.59924 13.9374 3.41329 8.63672 5.14378 5.7781C6.59618 3.37848 8.71912 2.5267 13.2523 2.52552L22.0462 2.65181C22.2473 2.65487 22.4447 2.70581 22.6221 2.8004C22.7995 2.895 22.9519 3.03053 23.0664 3.19575L28.3139 10.775L35.3627 11.9498V13.2885L34.1872 19.5576C33.8403 21.4079 33.2473 22.3399 30.8153 22.6321L20.8454 24.3378L20.7795 34.8761H23.3054L23.358 26.4701L31.1489 25.1361C32.9139 24.9191 34.2161 24.3503 35.1292 23.3977C35.9099 22.5833 36.385 21.5428 36.67 20.0231L37.8886 13.5232V9.81008L29.7821 8.45903Z" fill="black"/>
</svg>
