<svg width="40" height="37" viewBox="0 0 40 37" fill="none" xmlns="http://www.w3.org/2000/svg">
<path d="M34.5039 19.3447C35.7787 21.0476 39.2233 24.1629 38.8628 31.0533" stroke="black" stroke-width="1.44211" stroke-miterlimit="10" stroke-linecap="round" stroke-linejoin="round"/>
<path d="M15.7886 22.3032C15.7886 22.3032 21.9019 27.1936 15.7886 35.8336" stroke="black" stroke-width="1.44211" stroke-miterlimit="10" stroke-linecap="round" stroke-linejoin="round"/>
<path d="M17.7327 14.36C18.1285 20.3848 11.0107 21.3564 9.11325 21.8119C8.8735 21.8694 8.65768 21.9921 8.48333 22.1666L6.88065 23.7693C6.62871 24.0212 6.28693 24.1628 5.93059 24.1628H3.39817C2.53074 24.1628 1.76058 23.6077 1.4863 22.7848L1.10342 21.6361C0.917385 21.078 0.984515 20.4664 1.28721 19.9619L7.62254 9.40312L11.0287 5.997L9.50355 1.01784C9.50355 1.01784 15.1297 0.514035 15.5701 4.86163C15.5701 4.86163 27.7762 6.6223 23.1795 18.8378C23.1795 18.8378 22.0078 23.1273 24.892 26.9025" stroke="black" stroke-width="1.44211" stroke-miterlimit="10" stroke-linecap="round" stroke-linejoin="round"/>
<path d="M14.647 2.21117C14.647 2.21117 30.6864 -0.688039 29.038 16.6022" stroke="black" stroke-width="1.44211" stroke-miterlimit="10" stroke-linecap="round" stroke-linejoin="round"/>
<path d="M28.3481 8.79736C28.3481 8.79736 38.9956 13.5466 32.2824 24.8192C32.2824 24.8192 28.4068 29.5511 32.7331 34.6286" stroke="black" stroke-width="1.44211" stroke-miterlimit="10" stroke-linecap="round" stroke-linejoin="round"/>
<path d="M9.96017 14.4037C10.7566 14.4037 11.4023 13.7581 11.4023 12.9616C11.4023 12.1652 10.7566 11.5195 9.96017 11.5195C9.16372 11.5195 8.51807 12.1652 8.51807 12.9616C8.51807 13.7581 9.16372 14.4037 9.96017 14.4037Z" fill="black"/>
</svg>
