<svg width="40" height="35" viewBox="0 0 40 35" fill="none" xmlns="http://www.w3.org/2000/svg">
<path d="M11.4556 18.1491C9.78268 21.7654 2.09226 18.8726 2.09226 18.8726C1.67013 18.6814 1.36853 18.2955 1.28478 17.8397L1.02329 16.4161C0.960904 16.0765 1.02485 15.7258 1.20316 15.4301L2.57514 13.1546C3.23351 12.0627 4.19079 11.1821 5.33381 10.617L7.96227 9.3175C7.96227 9.3175 10.4715 1.64207 14.5553 1.00244C14.5553 1.00244 17.8026 4.29896 12.0953 11.63C12.0953 11.63 13.5274 12.6111 14.6538 14.4837C14.6538 14.4837 25.4445 8.20291 32.2679 21.8147C38.5955 34.4376 26.372 33.6516 22.2159 33.0594C21.1627 32.9093 20.21 32.2794 19.765 31.313C19.3005 30.304 19.3992 29.1039 22.1324 28.7521" stroke="black" stroke-width="1.41463" stroke-miterlimit="10" stroke-linecap="round" stroke-linejoin="round"/>
<path d="M5.17041 22.1323C5.40616 24.1954 6.63781 26.4861 9.88587 26.9557C9.88587 26.9557 10.9191 28.235 9.88587 29.3174C9.88587 29.3174 8.93029 30.1434 8.15486 30.9132C7.25862 31.8028 7.88954 33.3333 9.15224 33.3333H11.9057C12.3912 33.3333 12.8428 33.0843 13.102 32.6737L15.7327 28.5058L16.6218 25.7013" stroke="black" stroke-width="1.41463" stroke-miterlimit="10" stroke-linecap="round" stroke-linejoin="round"/>
<path d="M36.2922 26.9562C36.2922 26.9562 39.7618 26.8826 38.6794 29.6871C37.5969 32.4916 35.1133 32.2562 35.1133 32.2562" stroke="black" stroke-width="1.41463" stroke-miterlimit="10" stroke-linecap="round" stroke-linejoin="round"/>
<path d="M6.09898 7.30724C5.98992 5.14688 6.62947 2.19512 8.94656 1.00237C8.94656 1.00237 10.3168 0.837564 11.1815 3.25701" stroke="black" stroke-width="1.41463" stroke-miterlimit="10" stroke-linecap="round" stroke-linejoin="round"/>
</svg>
