<svg width="40" height="15" viewBox="0 0 40 15" fill="none" xmlns="http://www.w3.org/2000/svg">
<path d="M22.4033 9.95628C22.4033 9.95628 27.0301 9.07576 30.6113 9.95628C34.1925 10.8368 38.8886 9.66277 38.8886 9.66277C38.8886 9.66277 34.3882 10.0541 29.8878 7.51037C25.3874 4.9666 21.8652 6.62985 18.0496 6.3853C14.234 6.14069 9.73359 3.69483 7.58124 2.2762C5.42884 0.857558 4.0102 1.00431 4.0102 1.00431C4.0102 1.00431 3.66779 1.44457 2.49376 2.03159C1.31974 2.6186 -0.441307 3.20562 3.08078 4.37964C6.60286 5.55367 8.26605 7.21686 8.26605 7.21686" stroke="black" stroke-width="1.17403" stroke-miterlimit="10" stroke-linecap="round" stroke-linejoin="round"/>
<path d="M11.5264 9.09131C11.5264 9.09131 14.8817 10.152 17.7563 9.90737" stroke="black" stroke-width="1.17403" stroke-miterlimit="10" stroke-linecap="round" stroke-linejoin="round"/>
<path d="M10.1253 7.90186L8.36426 12.011" stroke="black" stroke-width="1.17403" stroke-miterlimit="10" stroke-linecap="round" stroke-linejoin="round"/>
<path d="M8.36387 10.8369H7.77686" stroke="black" stroke-width="1.17403" stroke-miterlimit="10" stroke-linecap="round" stroke-linejoin="round"/>
<path d="M8.95117 10.8369L9.53819 11.4239" stroke="black" stroke-width="1.17403" stroke-miterlimit="10" stroke-linecap="round" stroke-linejoin="round"/>
<path d="M20.4253 9.95996L20.1509 13.9899" stroke="black" stroke-width="1.17403" stroke-miterlimit="10" stroke-linecap="round" stroke-linejoin="round"/>
<path d="M19.7622 13.0264L19.2178 13.2458" stroke="black" stroke-width="1.17403" stroke-miterlimit="10" stroke-linecap="round" stroke-linejoin="round"/>
<path d="M20.3066 12.8071L21.0453 13.0693" stroke="black" stroke-width="1.17403" stroke-miterlimit="10" stroke-linecap="round" stroke-linejoin="round"/>
</svg>
