<svg width="40" height="34" viewBox="0 0 40 34" fill="none" xmlns="http://www.w3.org/2000/svg">
<path d="M14.3316 16.3492C15.3865 16.3492 16.2417 15.4939 16.2417 14.439C16.2417 13.384 15.3865 12.5288 14.3316 12.5288C13.2766 12.5288 12.4214 13.384 12.4214 14.439C12.4214 15.4939 13.2766 16.3492 14.3316 16.3492Z" fill="black"/>
<path d="M24.917 16.3492C25.972 16.3492 26.8272 15.4939 26.8272 14.439C26.8272 13.384 25.972 12.5288 24.917 12.5288C23.8621 12.5288 23.0068 13.384 23.0068 14.439C23.0068 15.4939 23.8621 16.3492 24.917 16.3492Z" fill="black"/>
<path d="M17.2363 21.8701C17.2363 21.8701 17.7139 23.515 19.624 23.7273C21.5342 23.9395 22.1709 21.8701 22.1709 21.8701" stroke="black" stroke-width="1.27345" stroke-miterlimit="10" stroke-linecap="round" stroke-linejoin="round"/>
<path d="M19.624 23.7271L19.7036 26.4862C20.7406 27.1522 21.3415 27.4472 22.9137 27.123" stroke="black" stroke-width="1.27345" stroke-miterlimit="10" stroke-linecap="round" stroke-linejoin="round"/>
<path d="M16.5996 27.1231C17.8465 27.3353 18.4567 27.1231 19.7036 26.4863" stroke="black" stroke-width="1.27345" stroke-miterlimit="10" stroke-linecap="round" stroke-linejoin="round"/>
<path d="M23.2886 30.0942C26.725 31.8608 29.455 31.1909 31.4082 29.9395" stroke="black" stroke-width="1.27345" stroke-miterlimit="10" stroke-linecap="round" stroke-linejoin="round"/>
<path d="M3.64513 22.3295C1.23443 13.7186 9.38387 10.409 9.38387 10.409C7.4737 9.77228 4.07785 4.30707 6.89001 1.76017C9.70217 -0.786726 13.5756 3.88257 13.5756 3.88257C13.5756 3.88257 19.8437 1.22953 26.3136 3.88257C26.3136 3.88257 30.187 -0.786726 32.9992 1.76017C35.8115 4.30707 32.4156 9.77228 30.5054 10.409C30.5054 10.409 38.5164 13.6517 36.3035 22.1103" stroke="black" stroke-width="1.27345" stroke-miterlimit="10" stroke-linecap="round" stroke-linejoin="round"/>
<path d="M8.85986 30.1694C10.7813 31.2659 13.3805 31.7491 16.5996 30.0942" stroke="black" stroke-width="1.27345" stroke-miterlimit="10" stroke-linecap="round" stroke-linejoin="round"/>
<path d="M13.5753 21.7109C13.5753 21.7109 2.75099 23.4089 1 29.1925" stroke="black" stroke-width="1.27345" stroke-miterlimit="10" stroke-linecap="round" stroke-linejoin="round"/>
<path d="M14.0528 24.0796C14.0528 24.0796 6.25173 25.4911 4.82031 32.5351" stroke="black" stroke-width="1.27345" stroke-miterlimit="10" stroke-linecap="round" stroke-linejoin="round"/>
<path d="M26.3135 21.7109C26.3135 21.7109 37.1378 23.4089 38.8888 29.1925" stroke="black" stroke-width="1.27345" stroke-miterlimit="10" stroke-linecap="round" stroke-linejoin="round"/>
<path d="M25.8359 24.0796C25.8359 24.0796 33.3127 26.4862 35.0685 32.5351" stroke="black" stroke-width="1.27345" stroke-miterlimit="10" stroke-linecap="round" stroke-linejoin="round"/>
</svg>
