<svg width="297" height="593" viewBox="0 0 297 593" fill="none" xmlns="http://www.w3.org/2000/svg">
<path d="M158.85 554.9C170.525 578.249 194.393 593 220.494 593H227.573C265.645 593 296.5 562.146 296.5 524.073C296.5 494.405 277.515 468.072 249.375 458.686C228.036 451.57 207.55 447.937 207.55 423.374L207.55 169.617C207.55 144.247 231.214 140.356 249.375 134.305C277.515 124.928 296.5 98.5863 296.5 68.927C296.5 30.8545 265.645 0 227.573 0H220.494C194.393 0 170.525 14.7509 158.85 38.1003C154.486 46.8377 142.014 46.8377 137.65 38.1003C125.975 14.7509 102.107 0 76.0059 0H68.927C30.8545 0 -3.43323e-05 30.8545 -3.43323e-05 68.9177C-3.43323e-05 98.5863 18.9852 124.919 47.1249 134.305C68.4637 141.421 88.95 145.053 88.95 169.617L88.95 423.374C88.95 448.744 65.2856 452.635 47.1249 458.686C18.9852 468.072 -3.43323e-05 494.414 -3.43323e-05 524.073C-3.43323e-05 562.136 30.8545 592.991 68.927 592.991H76.0059C102.116 592.991 125.975 578.24 137.65 554.891C142.014 546.162 154.486 546.162 158.85 554.9Z" fill="#94DE82"/>
</svg>
