<svg width="334" height="58" viewBox="0 0 334 58" fill="none" xmlns="http://www.w3.org/2000/svg">
<path d="M3.03409 46V11.0909H26.1477V17.1761H10.4148V25.4943H24.6136V31.5795H10.4148V46H3.03409ZM30.9759 46V19.8182H38.2372V46H30.9759ZM34.6236 16.4432C33.544 16.4432 32.6179 16.0852 31.8452 15.3693C31.0838 14.642 30.7031 13.7727 30.7031 12.7614C30.7031 11.7614 31.0838 10.9034 31.8452 10.1875C32.6179 9.46023 33.544 9.09659 34.6236 9.09659C35.7031 9.09659 36.6236 9.46023 37.3849 10.1875C38.1577 10.9034 38.544 11.7614 38.544 12.7614C38.544 13.7727 38.1577 14.642 37.3849 15.3693C36.6236 16.0852 35.7031 16.4432 34.6236 16.4432ZM51.3153 30.8636V46H44.054V19.8182H50.9744V24.4375H51.2812C51.8608 22.9148 52.8324 21.7102 54.196 20.8239C55.5597 19.9261 57.2131 19.4773 59.1562 19.4773C60.9744 19.4773 62.5597 19.875 63.9119 20.6705C65.2642 21.4659 66.3153 22.6023 67.0653 24.0795C67.8153 25.5455 68.1903 27.2955 68.1903 29.3295V46H60.929V30.625C60.9403 29.0227 60.5313 27.7727 59.7017 26.875C58.8722 25.9659 57.7301 25.5114 56.2756 25.5114C55.2983 25.5114 54.4347 25.7216 53.6847 26.142C52.946 26.5625 52.3665 27.1761 51.946 27.983C51.5369 28.7784 51.3267 29.7386 51.3153 30.8636ZM83.5611 46.4261C81.5724 46.4261 79.7713 45.9148 78.1577 44.892C76.5554 43.858 75.2827 42.3409 74.3395 40.3409C73.4077 38.3295 72.9418 35.8636 72.9418 32.9432C72.9418 29.9432 73.4247 27.4489 74.3906 25.4602C75.3565 23.4602 76.6406 21.9659 78.2429 20.9773C79.8565 19.9773 81.6236 19.4773 83.544 19.4773C85.0099 19.4773 86.2315 19.7273 87.2088 20.2273C88.1974 20.7159 88.9929 21.3295 89.5952 22.0682C90.2088 22.7955 90.6747 23.5114 90.9929 24.2159H91.2145V11.0909H98.4588V46H91.2997V41.8068H90.9929C90.652 42.5341 90.169 43.2557 89.544 43.9716C88.9304 44.6761 88.1293 45.2614 87.1406 45.7273C86.1634 46.1932 84.9702 46.4261 83.5611 46.4261ZM85.8622 40.6477C87.0327 40.6477 88.0213 40.3295 88.8281 39.6932C89.6463 39.0455 90.2713 38.142 90.7031 36.983C91.1463 35.8239 91.3679 34.4659 91.3679 32.9091C91.3679 31.3523 91.152 30 90.7202 28.8523C90.2884 27.7045 89.6634 26.8182 88.8452 26.1932C88.027 25.5682 87.0327 25.2557 85.8622 25.2557C84.669 25.2557 83.6634 25.5795 82.8452 26.2273C82.027 26.875 81.4077 27.7727 80.9872 28.9205C80.5668 30.0682 80.3565 31.3977 80.3565 32.9091C80.3565 34.4318 80.5668 35.7784 80.9872 36.9489C81.419 38.108 82.0384 39.017 82.8452 39.6761C83.6634 40.3239 84.669 40.6477 85.8622 40.6477ZM120.741 28.7841V34.5455H104.821V28.7841H120.741ZM133.082 46H125.173L137.224 11.0909H146.736L158.77 46H150.861L142.116 19.0682H141.844L133.082 46ZM132.588 32.2784H151.27V38.0398H132.588V32.2784ZM179.148 25.6648V31.4261H163.227V25.6648H179.148ZM185.472 46V11.0909H208.585V17.1761H192.852V25.4943H207.051V31.5795H192.852V46H185.472ZM212.991 46V19.8182H220.031V24.3864H220.304C220.781 22.7614 221.582 21.5341 222.707 20.7045C223.832 19.8636 225.128 19.4432 226.594 19.4432C226.957 19.4432 227.349 19.4659 227.77 19.5114C228.19 19.5568 228.56 19.6193 228.878 19.6989V26.142C228.537 26.0398 228.065 25.9489 227.463 25.8693C226.861 25.7898 226.31 25.75 225.81 25.75C224.741 25.75 223.787 25.983 222.946 26.4489C222.116 26.9034 221.457 27.5398 220.969 28.358C220.491 29.1761 220.253 30.1193 220.253 31.1875V46H212.991ZM232.632 46V19.8182H239.893V46H232.632ZM236.28 16.4432C235.2 16.4432 234.274 16.0852 233.501 15.3693C232.74 14.642 232.359 13.7727 232.359 12.7614C232.359 11.7614 232.74 10.9034 233.501 10.1875C234.274 9.46023 235.2 9.09659 236.28 9.09659C237.359 9.09659 238.28 9.46023 239.041 10.1875C239.814 10.9034 240.2 11.7614 240.2 12.7614C240.2 13.7727 239.814 14.642 239.041 15.3693C238.28 16.0852 237.359 16.4432 236.28 16.4432ZM257.642 46.5114C254.949 46.5114 252.631 45.9659 250.688 44.875C248.756 43.7727 247.267 42.2159 246.222 40.2045C245.176 38.1818 244.653 35.7898 244.653 33.0284C244.653 30.3352 245.176 27.9716 246.222 25.9375C247.267 23.9034 248.739 22.3182 250.636 21.1818C252.545 20.0455 254.784 19.4773 257.352 19.4773C259.08 19.4773 260.688 19.7557 262.176 20.3125C263.676 20.858 264.983 21.6818 266.097 22.7841C267.222 23.8864 268.097 25.2727 268.722 26.9432C269.347 28.6023 269.659 30.5455 269.659 32.7727V34.767H247.551V30.267H262.824C262.824 29.2216 262.597 28.2955 262.142 27.4886C261.688 26.6818 261.057 26.0511 260.25 25.5966C259.455 25.1307 258.528 24.8977 257.472 24.8977C256.369 24.8977 255.392 25.1534 254.54 25.6648C253.699 26.1648 253.04 26.8409 252.562 27.6932C252.085 28.5341 251.841 29.4716 251.83 30.5057V34.7841C251.83 36.0795 252.068 37.1989 252.545 38.142C253.034 39.0852 253.722 39.8125 254.608 40.3239C255.494 40.8352 256.545 41.0909 257.761 41.0909C258.568 41.0909 259.307 40.9773 259.977 40.75C260.648 40.5227 261.222 40.1818 261.699 39.7273C262.176 39.2727 262.54 38.7159 262.79 38.0568L269.506 38.5C269.165 40.1136 268.466 41.5227 267.409 42.7273C266.364 43.9205 265.011 44.8523 263.352 45.5227C261.705 46.1818 259.801 46.5114 257.642 46.5114ZM281.659 30.8636V46H274.398V19.8182H281.318V24.4375H281.625C282.205 22.9148 283.176 21.7102 284.54 20.8239C285.903 19.9261 287.557 19.4773 289.5 19.4773C291.318 19.4773 292.903 19.875 294.256 20.6705C295.608 21.4659 296.659 22.6023 297.409 24.0795C298.159 25.5455 298.534 27.2955 298.534 29.3295V46H291.273V30.625C291.284 29.0227 290.875 27.7727 290.045 26.875C289.216 25.9659 288.074 25.5114 286.619 25.5114C285.642 25.5114 284.778 25.7216 284.028 26.142C283.29 26.5625 282.71 27.1761 282.29 27.983C281.881 28.7784 281.67 29.7386 281.659 30.8636ZM313.905 46.4261C311.916 46.4261 310.115 45.9148 308.501 44.892C306.899 43.858 305.626 42.3409 304.683 40.3409C303.751 38.3295 303.286 35.8636 303.286 32.9432C303.286 29.9432 303.768 27.4489 304.734 25.4602C305.7 23.4602 306.984 21.9659 308.587 20.9773C310.2 19.9773 311.967 19.4773 313.888 19.4773C315.354 19.4773 316.575 19.7273 317.553 20.2273C318.541 20.7159 319.337 21.3295 319.939 22.0682C320.553 22.7955 321.018 23.5114 321.337 24.2159H321.558V11.0909H328.803V46H321.643V41.8068H321.337C320.996 42.5341 320.513 43.2557 319.888 43.9716C319.274 44.6761 318.473 45.2614 317.484 45.7273C316.507 46.1932 315.314 46.4261 313.905 46.4261ZM316.206 40.6477C317.376 40.6477 318.365 40.3295 319.172 39.6932C319.99 39.0455 320.615 38.142 321.047 36.983C321.49 35.8239 321.712 34.4659 321.712 32.9091C321.712 31.3523 321.496 30 321.064 28.8523C320.632 27.7045 320.007 26.8182 319.189 26.1932C318.371 25.5682 317.376 25.2557 316.206 25.2557C315.013 25.2557 314.007 25.5795 313.189 26.2273C312.371 26.875 311.751 27.7727 311.331 28.9205C310.911 30.0682 310.7 31.3977 310.7 32.9091C310.7 34.4318 310.911 35.7784 311.331 36.9489C311.763 38.108 312.382 39.017 313.189 39.6761C314.007 40.3239 315.013 40.6477 316.206 40.6477Z" fill="#114A04"/>
<path d="M35.7167 17.8505C35.5805 17.9477 35.4174 18 35.25 18C35.0827 18 34.9196 17.9477 34.7834 17.8505C30.759 14.9821 26.4881 9.08189 30.8057 4.8184C31.9906 3.65179 33.5872 2.99855 35.25 3C36.9168 3 38.516 3.65419 39.6944 4.81757C44.012 9.08106 39.741 14.9804 35.7167 17.8505Z" fill="#30A813" stroke="#30A813" stroke-linecap="round" stroke-linejoin="round"/>
<path d="M35.2502 10.5004C35.6923 10.5004 36.1162 10.3248 36.4288 10.0123C36.7414 9.6997 36.917 9.27576 36.917 8.83372C36.917 8.39168 36.7414 7.96774 36.4288 7.65517C36.1162 7.34259 35.6923 7.16699 35.2502 7.16699C34.8082 7.16699 34.3842 7.34259 34.0717 7.65517C33.7591 7.96774 33.5835 8.39168 33.5835 8.83372C33.5835 9.27576 33.7591 9.6997 34.0717 10.0123C34.3842 10.3248 34.8082 10.5004 35.2502 10.5004Z" fill="#9FEB8D" stroke="#9FEB8D" stroke-linecap="round" stroke-linejoin="round"/>
<path d="M235.52 4.17358C235.995 5.70588 235.51 7.25246 234.438 7.63107C233.365 8.00969 232.109 7.07387 231.635 5.54157C231.16 4.00927 231.645 2.46268 232.717 2.08407C233.79 1.70546 235.045 2.64127 235.52 4.17358ZM231.332 7.94896C231.96 9.10623 231.807 10.4528 230.994 10.9528C230.18 11.4529 229.011 10.9207 228.387 9.76344C227.762 8.60617 227.908 7.25961 228.722 6.75956C229.536 6.2595 230.705 6.7917 231.329 7.94896H231.332ZM230.296 15.1854C232.036 10.1385 235.128 8.8562 236.5 8.8562C237.872 8.8562 240.963 10.1385 242.704 15.1854C242.823 15.5319 242.876 15.9034 242.876 16.2748V16.332C242.876 17.2535 242.182 18 241.325 18C240.943 18 240.565 17.95 240.196 17.85L237.274 17.0642C236.766 16.9285 236.234 16.9285 235.726 17.0642L232.804 17.85C232.435 17.95 232.056 18 231.674 18C230.818 18 230.124 17.2535 230.124 16.332V16.2748C230.124 15.9034 230.177 15.5319 230.296 15.1854ZM242.006 10.9528C241.193 10.4528 241.04 9.10623 241.667 7.94896C242.295 6.7917 243.461 6.2595 244.274 6.75956C245.088 7.25961 245.241 8.60617 244.613 9.76344C243.986 10.9207 242.82 11.4529 242.006 10.9528ZM238.297 7.63107C237.224 7.25246 236.739 5.70588 237.214 4.17358C237.689 2.64127 238.944 1.70546 240.017 2.08407C241.09 2.46268 241.574 4.00927 241.1 5.54157C240.625 7.07387 239.369 8.00969 238.297 7.63107Z" fill="#30A813"/>
</svg>
