<svg width="100" height="94" viewBox="0 0 100 94" fill="none" xmlns="http://www.w3.org/2000/svg">
<path d="M44.2267 17.8855C47.0197 26.2644 44.1681 34.7215 37.8596 36.7918C31.551 38.8621 24.1681 33.7449 21.3752 25.366C18.5822 16.9871 21.4338 8.53005 27.7424 6.45973C34.051 4.38942 41.4338 9.50661 44.2267 17.8855ZM19.5978 38.53C23.2892 44.8582 22.3908 52.2215 17.6056 54.9558C12.8205 57.6902 5.94549 54.78 2.27362 48.4519C-1.39826 42.1238 -0.538884 34.7605 4.24627 32.0261C9.03143 29.2918 15.9064 32.2019 19.5783 38.53H19.5978ZM13.5041 78.1004C23.7385 50.5027 41.9221 43.491 49.9885 43.491C58.0549 43.491 76.2385 50.5027 86.4728 78.1004C87.176 79.9949 87.4885 82.0261 87.4885 84.0574V84.3699C87.4885 89.409 83.4064 93.491 78.3674 93.491C76.1213 93.491 73.8947 93.2175 71.7267 92.6707L54.5392 88.3738C51.551 87.6316 48.426 87.6316 45.4377 88.3738L28.2502 92.6707C26.0822 93.2175 23.8556 93.491 21.6096 93.491C16.5705 93.491 12.4885 89.409 12.4885 84.3699V84.0574C12.4885 82.0261 12.801 79.9949 13.5041 78.1004ZM82.3713 54.9558C77.5861 52.2215 76.6877 44.8582 80.3791 38.53C84.0705 32.2019 90.926 29.2918 95.7111 32.0261C100.496 34.7605 101.395 42.1238 97.7033 48.4519C94.0119 54.78 87.1564 57.6902 82.3713 54.9558ZM62.5 32.5C56.1914 30.4297 59.707 29.8789 62.5 21.5C65.293 13.1211 63.6914 9.42969 70 11.5C76.3086 13.5703 72.793 14.6211 70 23C67.207 31.3789 68.8086 34.5703 62.5 32.5Z" fill="#114A04"/>
<path d="M61.0277 37.5518C60.6989 37.6819 60.3544 37.6941 60.0424 37.5867C59.7305 37.4793 59.4665 37.2576 59.2875 36.9526C53.9952 27.9487 50.5795 12.0004 61.9154 5.22934C65.0237 3.37881 68.5039 2.94164 71.603 4.01239C74.7105 5.08239 77.188 7.57332 78.4884 10.9338C83.2525 23.2485 70.7428 33.7112 61.0277 37.5518Z" fill="#114A04" stroke="#30A813" stroke-linecap="round" stroke-linejoin="round"/>
<path d="M66.5651 19.9194C67.5865 20.0629 68.6231 19.7949 69.4468 19.1741C70.2705 18.5534 70.814 17.6309 70.9575 16.6095C71.1011 15.5881 70.833 14.5515 70.2122 13.7277C69.5915 12.904 68.669 12.3606 67.6476 12.217C66.6262 12.0735 65.5896 12.3416 64.7658 12.9623C63.9421 13.583 63.3987 14.5056 63.2551 15.527C63.1116 16.5484 63.3797 17.585 64.0004 18.4087C64.6211 19.2324 65.5437 19.7758 66.5651 19.9194Z" fill="white" stroke="#30A813" stroke-opacity="0.866667" stroke-linecap="round" stroke-linejoin="round"/>
</svg>
